<?xml version="1.0" ?><svg enable-background="new 0 0 64 64" id="Layer_1" version="1.1" viewBox="0 0 64 64" xml:space="preserve" xmlns="http://www.w3.org/2000/svg" xmlns:xlink="http://www.w3.org/1999/xlink"><g><g><path d="M47.348,24.852H27.49c-1.24,0-2.248,1.008-2.248,2.248c0,1.24,1.008,2.248,2.248,2.248h19.858    c1.24,0,2.248-1.008,2.248-2.248C49.596,25.86,48.588,24.852,47.348,24.852z" fill="#2F7DB9"/><g><path d="M47.348,15.127H27.49c-1.24,0-2.248,1.008-2.248,2.248c0,1.24,1.008,2.248,2.248,2.248h19.858     c1.24,0,2.248-1.008,2.248-2.248C49.596,16.136,48.588,15.127,47.348,15.127z" fill="#2F7DB9"/><path d="M47.348,34.576H27.49c-1.24,0-2.248,1.008-2.248,2.248c0,1.24,1.008,2.248,2.248,2.248h19.858     c1.24,0,2.248-1.008,2.248-2.248C49.596,35.584,48.588,34.576,47.348,34.576z" fill="#2F7DB9"/></g></g><path d="M58.058,7.371l-5.64-5.514c-0.484-0.473-1.124-0.734-1.801-0.734H18.58c-1.42,0-2.576,1.156-2.576,2.576   v46.426c0,1.42,1.156,2.576,2.576,2.576h37.677c1.42,0,2.576-1.156,2.576-2.576V9.213C58.833,8.524,58.551,7.853,58.058,7.371z    M50.617,11.789h3.064v35.76H21.156V6.275h26.885v2.938C48.041,10.633,49.197,11.789,50.617,11.789z" fill="#3E4753"/><g><path d="M42.844,55.213v2.512H10.318V16.451h3.174v-5.152h-5.75c-1.42,0-2.576,1.156-2.576,2.576v46.426    c0,1.42,1.156,2.576,2.576,2.576H45.42c1.42,0,2.576-1.156,2.576-2.576v-5.088H42.844z" fill="#3E4753"/></g></g></svg>